<svg width="120" height="97" viewBox="0 0 120 97" fill="none" xmlns="http://www.w3.org/2000/svg"><path d="M51.6497 66.9491L52.0755 66.9699C52.596 67.0005 53.0316 67.3485 53.6231 67.2288C54.1172 67.1286 54.6698 67.3234 55.1972 67.3777C55.7539 67.4352 56.3073 67.4863 56.8575 67.5308C57.4142 67.5767 57.9709 67.6185 58.5276 67.6491C59.0565 67.6783 59.5881 67.695 60.1184 67.7089C60.675 67.7243 61.2317 67.7423 61.7884 67.7396C67.0548 67.7103 72.2266 67.0548 77.1937 65.2247C79.2441 64.4939 81.186 63.4887 82.9666 62.2366C83.8849 61.6051 84.7052 60.8417 85.4008 59.9709C85.9435 59.2639 85.9129 58.902 85.2045 58.4163C83.0932 56.9717 81.3842 55.0984 79.7448 53.1778C78.2041 51.3685 76.8221 49.4298 75.3789 47.5454C75.2829 47.4013 75.1945 47.2521 75.1144 47.0986C76.1314 46.7769 77.1746 46.5441 78.2319 46.4028C86.3583 45.2003 94.0768 46.5851 101.454 50.0992C101.706 50.2175 101.958 50.3386 102.198 50.4778C102.508 50.6587 102.77 50.617 103.001 50.3484C103.253 50.045 103.279 49.8028 102.97 49.4799C102.734 49.2184 102.451 49.0039 102.135 48.8481C97.8521 46.8913 93.2795 45.6437 88.5962 45.1544C86.0757 44.8983 83.5539 44.7271 81.0306 45.0291C79.579 45.2045 78.1415 45.4981 76.6996 45.7417C76.4561 45.7821 76.2166 45.8433 75.8214 45.9268C76.0691 45.622 76.2166 45.4258 76.3781 45.2434C77.3175 44.1927 78.4657 43.4161 79.6848 42.7383C82.5685 41.1267 85.6694 40.1914 88.9205 39.7113C91.3115 39.3592 93.7011 39.2325 96.0949 39.5721C98.1278 39.8339 100.132 40.2868 102.079 40.9249C104.733 41.8281 107.058 43.2686 108.942 45.3631C110.52 47.1167 111.987 48.958 112.839 51.1973C113.241 52.2606 113.707 53.3253 113.912 54.4317C114.267 56.3468 114.378 58.291 113.634 60.3021C113.536 60.0613 113.464 59.9235 113.423 59.7774C112.786 57.4866 111.405 55.6704 109.762 54.0198C109.652 53.8905 109.499 53.8067 109.331 53.7851C109.163 53.7635 108.993 53.8055 108.854 53.9029C108.697 54.4345 108.963 54.8312 109.321 55.168C110.593 56.3718 111.598 57.7357 111.987 59.4824C112.217 60.515 112.465 61.5449 112.666 62.5832C112.707 62.8512 112.673 63.1251 112.568 63.3751C111.454 66.0764 110.104 68.6456 108.177 70.871C107.019 72.2084 105.859 73.5459 104.678 74.8639C103.749 75.9007 102.766 76.8847 101.847 77.9257C99.2026 80.9249 95.9571 82.9861 92.1786 84.222C90.091 84.9039 88.0368 85.7111 85.8615 86.0827C84.268 86.3611 82.6604 86.5935 81.0641 86.7869C79.6125 86.9609 78.1803 86.6895 76.7914 86.3082C74.3545 85.6401 71.9662 84.8274 69.6935 83.6764C67.4737 82.5637 65.4606 81.0796 63.7411 79.2882C63.4889 79.0047 63.2217 78.7348 62.9408 78.4796C60.8324 76.6704 59.0968 74.5299 57.392 72.3657C55.907 70.4827 54.2564 68.7959 52.2523 67.4696C52.0424 67.3068 51.8412 67.133 51.6497 66.9491ZM93.1736 77.2479C93.3873 77.2216 93.5968 77.1683 93.7971 77.0893C94.9857 76.4899 96.1668 75.8748 97.3405 75.2438C97.5552 75.1109 97.737 74.931 97.8722 74.7178C98.1756 74.2821 97.9933 73.9147 97.4547 73.9147C97.1276 73.9177 96.8043 73.9844 96.5027 74.111C95.5053 74.5303 94.5171 74.971 93.5382 75.4331C93.2029 75.6069 92.8871 75.8159 92.5961 76.0566C92.3456 76.2528 92.1911 76.5228 92.3177 76.8541C92.4444 77.1853 92.745 77.2577 93.1709 77.2549L93.1736 77.2479ZM87.0862 72.118C88.6881 71.8925 90.2385 71.5808 91.5857 70.6567C91.7585 70.5533 91.8959 70.4 91.9796 70.2169C92.0591 69.9893 92.0654 69.7426 91.9977 69.5112C91.8961 69.2245 91.601 69.1327 91.3018 69.1842C91.0834 69.2338 90.8703 69.3046 90.6657 69.3957C89.8223 69.7284 88.979 70.0568 88.1467 70.4131C87.7749 70.5654 87.4215 70.7591 87.0931 70.9907C86.8974 71.1447 86.7521 71.3535 86.6756 71.5905C86.574 71.9009 86.7758 72.118 87.0862 72.1249V72.118ZM87.7556 84.087C87.814 84.087 87.8947 84.0869 87.9657 84.0744C89.2975 83.9064 90.5784 83.4571 91.7234 82.7564C92.0365 82.563 92.4194 82.2721 92.2635 81.8504C92.1076 81.4287 91.6414 81.4329 91.2726 81.4997C89.9268 81.7294 88.621 82.1513 87.3951 82.7523C86.9665 82.9638 86.812 83.2839 86.8955 83.5873C86.979 83.8907 87.2587 84.0883 87.7556 84.0953V84.087ZM84.4252 82.0063C85.6972 81.9131 86.8719 81.5178 88.0312 81.0822C88.6519 80.8498 89.0054 80.435 88.8662 80.1525C88.6157 79.664 88.1216 79.657 87.6735 79.6932C87.0164 79.7306 86.3642 79.8284 85.725 79.9855C85.1456 80.156 84.5879 80.3932 84.0632 80.6925C83.6457 80.9207 83.5274 81.2575 83.6457 81.5693C83.7807 81.9562 84.1134 81.9896 84.4252 82.0147V82.0063ZM100.074 76.1234C98.5763 76.5131 97.1386 76.8722 95.8875 77.7211C95.7376 77.8158 95.6266 77.9609 95.5743 78.1303C95.534 78.3572 95.5159 78.6633 95.637 78.8262C95.7581 78.989 96.0545 79.0266 96.2813 79.0753C96.4077 79.08 96.5328 79.0486 96.6419 78.9848C97.6802 78.5353 98.7198 78.0913 99.7455 77.6195C99.9975 77.5036 100.221 77.334 100.401 77.1227C100.54 76.9487 100.704 76.6523 100.646 76.4811C100.587 76.3099 100.269 76.2417 100.074 76.1318V76.1234ZM89.7388 74.3823C89.9573 74.3531 90.0603 74.3503 90.1563 74.3253C91.4534 74.0006 92.7046 73.5143 93.8806 72.8779C93.9682 72.8274 94.0495 72.7666 94.1228 72.6969C94.3622 72.477 94.5111 72.2084 94.3775 71.8883C94.2439 71.5682 93.9406 71.4833 93.6205 71.5181C93.4197 71.5393 93.2234 71.5914 93.0386 71.6726C92.0041 72.1365 90.9737 72.6106 89.9476 73.095C89.7673 73.185 89.6001 73.2993 89.4507 73.4346C89.2447 73.6127 89.118 73.8688 89.2823 74.104C89.3922 74.2668 89.6358 74.3322 89.7388 74.3907V74.3823ZM106.413 50.4708C105.578 50.4583 104.882 51.0067 104.669 51.8626C104.627 52.0016 104.612 52.1476 104.625 52.2924C104.639 52.4372 104.682 52.5778 104.75 52.7062C104.818 52.8345 104.912 52.948 105.024 53.0402C105.137 53.1324 105.266 53.2013 105.406 53.2432C106.06 53.4756 106.646 53.31 107.182 52.912C107.808 52.4471 108.017 51.8528 107.774 51.1931C107.532 50.5335 106.983 50.4987 106.413 50.4792V50.4708ZM73.9147 82.4099C74.7052 82.3904 76.6856 81.9284 77.458 81.5749C77.5786 81.5362 77.6893 81.4716 77.7823 81.3856C77.9298 81.2005 78.1706 80.9528 78.1303 80.7899C78.0899 80.6271 77.7768 80.4726 77.5555 80.4016C77.3351 80.3452 77.1048 80.3395 76.8819 80.3849C76.0121 80.5241 75.1423 80.6814 74.2822 80.8706C73.9435 80.9645 73.6167 81.0966 73.308 81.2645C73.0213 81.4037 72.7971 81.6222 72.8639 81.9785C72.9363 82.3584 73.2494 82.396 73.5598 82.4141C73.66 82.421 73.7602 82.4182 73.9147 82.4182V82.4099ZM84.3694 76.2668C83.0195 76.4519 81.657 76.8513 80.4226 77.6321C80.3599 77.6724 80.2833 77.7142 80.2513 77.7712C80.1748 77.9452 80.0245 78.1748 80.0816 78.3001C80.1595 78.4685 80.3919 78.5784 80.5812 78.6772C80.7022 78.715 80.8326 78.7096 80.95 78.6619C82.2174 78.262 83.4829 77.8571 84.7466 77.4469C84.8449 77.4212 84.9333 77.3664 84.9999 77.2897C85.121 77.1143 85.334 76.8722 85.2783 76.7413C85.2073 76.5521 84.9442 76.4268 84.7466 76.3002C84.6812 76.2654 84.5587 76.2904 84.3694 76.2751V76.2668ZM82.3291 83.2784L82.2693 83.0919C80.6285 82.9235 79.0405 83.1211 77.5374 83.8698C77.4485 83.9161 77.3669 83.9752 77.2952 84.0452C77.0725 84.2567 76.9599 84.5393 77.1352 84.7898C77.2842 84.9777 77.4954 85.1061 77.7308 85.1516C77.9823 85.1772 78.2362 85.1364 78.4671 85.0333C79.65 84.5504 80.8331 84.0466 82.0008 83.5414C82.1206 83.4708 82.2309 83.3852 82.3291 83.2867V83.2784ZM72.0581 77.0155C70.9947 77.1618 69.9528 77.4352 68.9546 77.8297C68.5092 78.0176 68.3101 78.3182 68.37 78.6104C68.4382 78.9431 68.7875 79.1379 69.276 79.1212C69.3762 79.1212 69.4764 79.0962 69.5753 79.0822C70.4972 78.9399 71.3874 78.638 72.2057 78.1901C72.4062 78.0858 72.5871 77.9473 72.7401 77.781C73.0602 77.4289 72.9405 77.1338 72.4618 77.0447C72.3643 77.0406 72.2627 77.0503 72.0581 77.0294V77.0155ZM80.9277 73.9453C80.6021 73.7728 80.4169 73.5974 80.2221 73.5849C79.036 73.5162 77.8535 73.7696 76.7998 74.3183C76.7549 74.3412 76.7147 74.3724 76.6814 74.4102C76.4838 74.6203 76.3197 74.8472 76.4672 75.1506C76.5215 75.281 76.6248 75.3849 76.755 75.4398C76.8851 75.4948 77.0318 75.4963 77.1631 75.4442C78.2153 75.1093 79.2627 74.7604 80.3055 74.3976C80.4837 74.3503 80.6229 74.1861 80.9235 73.9593L80.9277 73.9453Z" fill="white"></path><path d="M42.7201 28.7834C42.6783 28.3812 42.6728 28.0583 42.6074 27.7465C42.2163 25.8913 41.7153 24.0542 41.4314 22.1796C40.9206 18.8199 40.6979 15.4407 41.32 12.0602C41.6351 10.365 42.2476 8.739 43.1293 7.2573C43.4566 6.74786 43.8293 6.269 44.2427 5.82659C44.5572 5.46613 44.9302 5.15716 45.2656 4.81201C46.5638 3.44557 48.269 2.53556 50.1269 2.2178C50.8979 2.07863 51.6579 1.88935 52.4248 1.73765C53.7608 1.47183 55.0537 1.71539 56.2853 2.2011C57.6673 2.74667 58.7905 3.64991 59.7647 4.80505C61.4028 6.75349 62.2337 9.00811 62.7431 11.4395C63.6097 15.5711 64.4841 19.6999 65.3665 23.826C65.4068 24.0194 65.4264 24.2171 65.4612 24.4523L64.7973 24.6638C61.8482 25.5991 59.1523 27.0019 56.8198 29.0562C54.1754 31.3818 52.7614 34.3448 52.5513 37.8241C52.4024 40.2805 53.0468 42.6382 54.0516 44.8844C54.1337 45.0681 54.2326 45.2449 54.3217 45.4272C54.3335 45.4671 54.3404 45.5082 54.3425 45.5497C54.2033 45.6485 54.0392 45.7598 53.8805 45.8726C53.4463 46.1774 53.0106 46.4794 52.5778 46.7883C50.8896 47.9908 50.0936 49.6748 49.985 51.7067C49.9377 52.6142 49.914 53.5257 49.9558 54.4332C50.0254 55.9516 50.628 57.2737 51.598 58.4302C52.1157 59.0496 52.6557 59.6494 53.172 60.2395C52.291 61.8414 51.5256 63.428 52.0684 65.3806C51.8355 65.3758 51.6031 65.3567 51.3725 65.3235C47.2057 64.444 43.1543 63.2025 39.3005 61.3696C37.0782 60.3255 35.0162 58.9698 33.1769 57.3433C31.845 56.1561 30.7011 54.8187 29.9133 53.1973C28.5703 50.4305 28.8221 47.8085 30.6244 45.3354C31.8519 43.65 33.4706 42.4224 35.2381 41.3884C35.8894 42.0105 36.4906 42.6242 37.1322 43.1837C37.7418 43.7126 38.3848 44.1983 39.0417 44.6743C39.3424 44.8942 39.6903 45.0528 40.1398 44.8761C40.0354 44.2832 39.6137 43.9617 39.2129 43.6235C38.6339 43.1378 38.0062 42.698 37.4801 42.1594C35.1406 39.7753 33.4553 37.0099 32.5479 33.7644C31.4345 29.7812 31.9313 25.9512 33.4469 22.1893C33.6022 21.7603 33.8198 21.3566 34.0926 20.991C35.0669 19.7955 36.0411 18.5958 37.0877 17.4713C37.8546 16.6488 38.8706 16.1756 40.0271 15.8443C40.0612 16.0237 40.0845 16.205 40.0967 16.3871C40.0967 20.3995 40.9511 24.2672 42.0896 28.0861C42.1522 28.3658 42.1495 28.7235 42.7201 28.7834Z" fill="#8ABAFF"></path><path d="M84.8205 13.2002C84.1009 14.4847 83.3786 15.7568 82.6758 17.0386C82.3599 17.6148 82.0773 18.209 81.7837 18.7963C81.7025 18.9536 81.6314 19.1158 81.5708 19.2821C81.4901 19.5201 81.3814 19.7998 81.6918 19.9418C81.9562 20.0628 82.1094 19.8374 82.2333 19.6467C82.3836 19.4129 82.5116 19.1666 82.6508 18.9244C83.3272 17.7405 84.004 16.5552 84.6813 15.3685C85.2203 14.4527 85.8715 13.6079 86.62 12.8536C89.1446 10.219 92.2872 9.17106 95.832 9.51343C97.9516 9.72219 99.7998 10.6574 100.86 12.7144C101.345 13.6384 101.507 14.698 101.321 15.7248C100.951 17.9766 99.8235 19.8471 98.3761 21.5367C97.4228 22.6501 96.3719 23.6772 95.3768 24.753C94.2634 25.9596 93.1585 27.1774 92.0492 28.3882C91.8808 28.5719 91.7054 28.7501 91.5649 28.8976C88.7939 25.8748 85.4092 24.458 81.3565 24.6445C80.1798 24.6796 79.0566 25.1439 78.1986 25.9499C77.3886 26.7056 76.6412 27.5281 75.8201 28.3674C74.8166 27.915 73.667 27.7745 72.5272 27.5769C70.8098 27.279 69.3416 27.8121 68.0138 28.8628C67.9164 28.9408 67.8175 29.0187 67.7159 29.0925C67.6992 29.1064 67.6672 29.0925 67.599 29.105C66.764 24.8574 65.929 20.6042 65.0745 16.301C66.1642 15.4743 67.3262 15.0219 68.7709 15.4659C70.537 16.0115 71.5265 16.6753 72.9753 18.5973C72.5453 19.8415 72.1125 21.076 71.695 22.3175C71.6024 22.6055 71.5385 22.902 71.5043 23.2026C71.4723 23.4545 71.5698 23.648 71.933 23.6313C72.1432 23.0746 72.3783 22.5262 72.5662 21.9612C73.2621 19.8513 74.356 17.9474 75.5821 16.1159C76.8082 14.2843 78.5047 13.0707 80.5144 12.2357C81.3258 11.8975 82.1261 11.8738 82.9291 12.29C83.5526 12.6128 84.197 12.9037 84.8205 13.2002Z" fill="#8ABAFF"></path><path d="M67.2216 32.7931C67.5584 33.816 67.9064 34.7415 68.1652 35.6879C69.0366 38.8106 70.3592 41.7892 72.0913 44.5296C74.531 48.4474 77.2505 52.1453 80.5517 55.3978C81.7612 56.5891 82.933 57.8083 84.379 58.7212C84.5039 58.8071 84.6212 58.9035 84.7297 59.0093C84.7631 59.0386 84.7743 59.0942 84.8133 59.175C84.5099 59.4839 84.2092 59.8179 83.8794 60.1227C81.622 62.2103 78.9193 63.4963 76.0328 64.4371C71.8116 65.8038 67.4513 66.2965 63.0381 66.4148C62.8699 66.4084 62.7021 66.3931 62.5356 66.3689C62.5551 65.4545 62.5719 64.5721 62.8864 63.7399C62.995 63.4532 63.2594 63.211 63.4904 62.9869C64.0039 62.4873 63.9998 62.2604 63.5127 61.726C62.9351 61.0942 62.2795 60.4971 61.8522 59.7692C60.3589 57.2251 60.3826 54.6198 61.8522 52.0659C62.1051 51.609 62.4654 51.2204 62.9018 50.9336C63.3382 50.6468 63.8376 50.4704 64.3574 50.4195C64.5088 50.4087 64.659 50.3836 64.8056 50.3443C65.2092 50.2052 65.3622 49.8976 65.1576 49.5093C64.9431 49.079 64.6878 48.6702 64.395 48.2887C62.743 46.2443 62.0096 41.4984 62.6832 38.9794C62.8822 38.2376 63.0909 37.4958 63.5752 36.9057C64.6315 35.6169 65.7395 34.3699 66.8292 33.109C66.9519 32.994 67.083 32.8884 67.2216 32.7931Z" fill="white"></path><path d="M62.5329 62.4135C61.4905 63.5269 61.7841 64.9938 61.4905 66.3966C58.7448 66.3701 56.0054 66.129 53.2973 65.6757C52.671 64.1657 53.0412 62.7795 53.6912 61.4267C53.8001 61.2565 53.9468 61.1136 54.1198 61.0092C54.7447 60.5555 54.7809 60.3342 54.2701 59.7441C53.8081 59.2097 53.3251 58.6906 52.8575 58.1589C51.9918 57.1764 51.3015 56.0936 51.1122 54.7686C50.8944 53.3395 50.9573 51.8816 51.2973 50.4765C51.4905 49.6027 51.9706 48.8188 52.6612 48.2497C53.4304 47.6389 54.237 47.0765 55.076 46.5657C55.8637 46.0842 55.9764 45.9213 55.57 45.1364C54.5485 43.1671 54.0642 41.0363 53.9514 38.8638C53.7844 35.6308 54.9256 32.8056 57.1607 30.4633C58.7724 28.7751 60.7473 27.5949 62.8586 26.6457C63.7521 26.2435 64.6776 25.9137 65.6769 25.5156C66.2224 27.6032 66.4214 29.6686 66.9294 31.7256C65.5892 32.6622 64.5968 33.9426 63.5322 35.1576C61.645 37.3092 61.1565 39.838 61.4445 42.5881C61.5197 43.284 61.6631 43.9799 61.78 44.6841C62.0305 46.1774 62.5482 47.5608 63.4668 48.78C63.5565 48.9022 63.6383 49.0301 63.7117 49.1627C63.7293 49.2072 63.74 49.2541 63.7436 49.3019C63.713 49.3381 63.6894 49.3937 63.6504 49.4063C61.3151 50.1592 60.3103 52.006 59.8552 54.2078C59.2512 57.1638 60.0417 59.7636 62.1502 61.9417C62.2546 62.0502 62.3631 62.156 62.4689 62.266C62.4954 62.3128 62.5168 62.3622 62.5329 62.4135Z" fill="#2C76F4"></path><path d="M85.2379 38.7941C83.5177 39.2117 81.7585 39.9688 80.0327 40.8205C77.7503 41.9492 75.749 43.4036 74.4088 45.6332C74.3512 45.6978 74.2851 45.7544 74.2125 45.8016C74.0831 45.6276 73.9578 45.4773 73.8535 45.3144C71.9509 42.3333 70.5328 39.1296 69.4403 35.7727C69.2858 35.2995 69.3763 34.9014 69.9149 34.637C71.2537 33.9787 72.6607 33.4387 74.1903 33.5904C75.2364 33.6852 76.206 34.1785 76.8986 34.9682C77.3773 35.4999 77.5778 35.4331 77.9981 34.8291C78.4611 34.1376 78.9727 33.48 79.529 32.8611C80.7969 31.5195 82.3863 31.2259 84.1218 31.6712C85.0769 31.9289 85.9707 32.3751 86.7507 32.9836C87.0049 33.1893 87.233 33.4254 87.4299 33.6865C87.6567 33.9648 87.6303 34.2571 87.448 34.5925C86.7117 35.9494 86.0117 37.3175 85.2379 38.7941Z" fill="white"></path><path d="M88.2315 33.3413C86.6365 31.5836 84.7952 30.5467 82.4683 30.6094C80.0397 30.6748 78.6062 32.2488 77.3801 34.1694C77.1936 34.0567 77.0308 33.9593 76.8693 33.8591C75.486 32.9879 74.0177 32.587 72.3921 33.0394C71.8354 33.1952 71.2592 33.3093 70.7122 33.5C70.1263 33.7046 69.564 33.9774 68.9447 34.239C68.4822 33.1049 68.1258 31.9304 67.8801 30.7304C67.8629 30.6104 67.8711 30.4881 67.9044 30.3716C67.9378 30.255 67.9954 30.1468 68.0735 30.0541C68.9684 29.1745 69.9482 28.4215 71.2912 28.4229C72.4301 28.4258 73.5633 28.5817 74.6606 28.8864C74.9766 28.9741 75.2591 29.0743 75.433 29.4208C75.7114 29.9775 75.9995 29.9845 76.353 29.457C77.0252 28.444 77.8446 27.5368 78.7843 26.7654C79.5303 26.1586 80.3737 25.7703 81.3424 25.7383C81.9737 25.7125 82.6061 25.7293 83.2352 25.7884C85.59 26.0264 87.6553 26.9936 89.5133 28.4202C89.8975 28.7458 90.2473 29.11 90.5571 29.5071C90.6369 29.5903 90.683 29.7003 90.6861 29.8156C90.6891 29.9309 90.6491 30.0432 90.5738 30.1306C89.793 31.1842 89.0262 32.2502 88.2315 33.3413Z" fill="#2C76F4"></path><path d="M1.88098 51.1639C2.66871 50.4249 3.44808 49.6747 4.24694 48.9496C4.8273 48.4235 5.45365 47.9476 6.02427 47.4187C6.14619 47.2921 6.30366 47.2055 6.4759 47.1705C6.64815 47.1354 6.827 47.1536 6.9887 47.2225C7.92256 47.5342 8.87171 47.8042 9.79026 48.1536C15.0789 50.1577 20.3509 52.1896 25.6409 54.1881C26.7946 54.6238 27.9942 54.9397 29.1703 55.3168C29.3122 55.3468 29.4432 55.4152 29.5489 55.5145C29.9497 56.028 30.3269 56.5583 30.7375 57.1164C30.6553 57.1439 30.5694 57.1589 30.4828 57.1609C27.6339 56.4929 24.7863 55.8137 21.9361 55.1512C19.4782 54.5806 17.0232 53.9961 14.5598 53.4811C11.9675 52.9384 9.3667 52.4373 6.75765 51.9781C5.34225 51.7275 3.90743 51.5898 2.4809 51.4005L1.9715 51.3323L1.88098 51.1639Z" fill="#2C76F4"></path><path d="M114.734 60.8644C114.894 59.1206 115.047 57.4519 115.209 55.6871C116.407 56.5695 117.643 57.3906 118.856 58.4094L114.734 60.8644Z" fill="#FCA930"></path><path d="M93.1708 77.2548C92.7422 77.2548 92.4444 77.1978 92.3163 76.861C92.1883 76.5242 92.3428 76.2598 92.5947 76.0635C92.8857 75.8228 93.2015 75.6138 93.5368 75.44C94.5138 74.9761 95.5019 74.5354 96.5012 74.1179C96.8028 73.9913 97.1261 73.9247 97.4531 73.9216C97.9918 73.9216 98.1741 74.2891 97.8707 74.7247C97.7355 74.938 97.5538 75.1178 97.3391 75.2507C96.1673 75.8844 94.9862 76.4996 93.7957 77.0962C93.595 77.1753 93.385 77.2286 93.1708 77.2548Z" fill="black"></path><path d="M87.0862 72.125C86.7758 72.125 86.574 71.9051 86.6686 71.585C86.7451 71.348 86.8904 71.1392 87.0862 70.9852C87.4145 70.7536 87.7678 70.5599 88.1396 70.4076C88.9747 70.0513 89.8098 69.7228 90.6587 69.3902C90.8669 69.3028 91.0832 69.2361 91.3045 69.1912C91.6009 69.1397 91.896 69.2316 92.0003 69.5183C92.0681 69.7496 92.0618 69.9963 91.9823 70.2239C91.8986 70.407 91.7612 70.5603 91.5884 70.6637C90.2384 71.5878 88.688 71.9009 87.0862 72.125Z" fill="black"></path><path d="M87.7557 84.0953C87.2589 84.0953 86.9847 83.9283 86.8971 83.6026C86.8094 83.277 86.968 82.9764 87.3967 82.7676C88.6225 82.1666 89.9283 81.7448 91.2741 81.515C91.6429 81.4524 92.1092 81.4468 92.265 81.8657C92.4209 82.2847 92.0382 82.5783 91.7251 82.7718C90.5801 83.4724 89.2992 83.9217 87.9674 84.0897C87.8908 84.0925 87.8142 84.0925 87.7557 84.0953Z" fill="black"></path><path d="M84.4251 82.0148C84.1134 81.9898 83.7806 81.9564 83.6401 81.5778C83.526 81.2661 83.6401 80.9293 84.0576 80.701C84.5822 80.4018 85.14 80.1645 85.7194 79.994C86.3585 79.837 87.0108 79.7391 87.6678 79.7018C88.116 79.6656 88.6101 79.6725 88.8606 80.161C88.9998 80.4394 88.6518 80.8569 88.0256 81.0907C86.8718 81.5263 85.6972 81.9216 84.4251 82.0148Z" fill="black"></path><path d="M100.074 76.1317C100.267 76.2417 100.589 76.3196 100.646 76.488C100.703 76.6564 100.546 76.9556 100.401 77.1296C100.221 77.3409 99.9976 77.5105 99.7456 77.6264C98.7198 78.0982 97.6802 78.5422 96.642 78.9917C96.5329 79.0555 96.4077 79.0869 96.2814 79.0822C96.0532 79.0335 95.754 78.9917 95.6371 78.8331C95.5202 78.6744 95.534 78.3655 95.5744 78.1372C95.6267 77.9679 95.7377 77.8227 95.8875 77.728C97.1387 76.8805 98.5764 76.5214 100.074 76.1317Z" fill="black"></path><path d="M89.7388 74.3908C89.6358 74.3323 89.3923 74.2683 89.2837 74.1124C89.1195 73.8772 89.2461 73.6211 89.4521 73.443C89.6015 73.3077 89.7686 73.1935 89.9489 73.1034C90.9741 72.62 92.0045 72.1459 93.0399 71.6811C93.2247 71.5999 93.4211 71.5477 93.6218 71.5266C93.9419 71.4918 94.2438 71.5711 94.3788 71.8968C94.5138 72.2224 94.3635 72.4855 94.1241 72.7054C94.0508 72.7751 93.9697 72.8358 93.882 72.8863C92.7061 73.5227 91.4548 74.009 90.1576 74.3337C90.0602 74.3588 89.9573 74.3616 89.7388 74.3908Z" fill="black"></path><path d="M106.413 50.4792C106.982 50.4987 107.54 50.5432 107.774 51.1959C108.008 51.8486 107.807 52.4485 107.181 52.9147C106.645 53.3128 106.059 53.4784 105.405 53.246C105.266 53.2041 105.136 53.1351 105.024 53.043C104.911 52.9508 104.818 52.8373 104.75 52.7089C104.681 52.5806 104.639 52.44 104.625 52.2952C104.611 52.1504 104.626 52.0043 104.669 51.8654C104.882 51.015 105.571 50.468 106.413 50.4792Z" fill="black"></path><path d="M73.9147 82.4182C73.7602 82.4182 73.6601 82.4182 73.5585 82.4182C73.2439 82.4057 72.9308 82.3626 72.8626 81.9826C72.7958 81.6263 73.0198 81.4078 73.3065 81.2687C73.6152 81.1008 73.9421 80.9686 74.2807 80.8748C75.1408 80.6855 76.0107 80.5352 76.8806 80.3891C77.1035 80.3436 77.3338 80.3493 77.5541 80.4058C77.7754 80.4768 78.0858 80.6229 78.1289 80.7941C78.1721 80.9653 77.9285 81.2046 77.781 81.3897C77.688 81.4757 77.5773 81.5403 77.4567 81.579C76.6857 81.9367 74.7052 82.3987 73.9147 82.4182Z" fill="black"></path><path d="M84.3694 76.2751C84.5587 76.2905 84.6797 76.2654 84.7535 76.3127C84.9511 76.4394 85.2142 76.5646 85.2852 76.7539C85.3339 76.8833 85.121 77.1269 85.0068 77.3023C84.9401 77.379 84.8518 77.4338 84.7535 77.4595C83.4898 77.8687 82.2243 78.2737 80.9569 78.6745C80.8395 78.7222 80.7091 78.7276 80.5881 78.6898C80.3988 78.598 80.1706 78.481 80.0884 78.3126C80.0314 78.1874 80.1817 77.9578 80.2582 77.7838C80.286 77.7226 80.3668 77.6808 80.4294 77.6446C81.657 76.8597 83.0194 76.4602 84.3694 76.2751Z" fill="black"></path><path d="M82.3293 83.2868C82.2303 83.3886 82.1186 83.477 81.9968 83.5499C80.8235 84.0551 79.6462 84.5589 78.4632 85.0418C78.2323 85.1449 77.9785 85.1857 77.7269 85.1601C77.4915 85.1146 77.2802 84.9862 77.1312 84.7983C76.9559 84.5478 77.0687 84.2652 77.2913 84.0537C77.363 83.9837 77.4445 83.9246 77.5334 83.8783C79.0407 83.1296 80.6286 82.9319 82.2653 83.1003L82.3293 83.2868Z" fill="black"></path><path d="M72.0581 77.0295C72.2627 77.0435 72.3644 77.0407 72.4618 77.0588C72.9405 77.1479 73.0602 77.4429 72.7401 77.795C72.5871 77.9614 72.4063 78.0998 72.2057 78.2042C71.3874 78.6521 70.4972 78.9539 69.5753 79.0963C69.4765 79.1102 69.3762 79.1311 69.276 79.1352C68.7819 79.1519 68.441 78.9571 68.37 78.6245C68.3102 78.3322 68.5092 78.0316 68.9546 77.8437C69.9528 77.4492 70.9948 77.1759 72.0581 77.0295Z" fill="black"></path><path d="M80.9236 73.9593C80.6188 74.1861 80.4796 74.3503 80.3043 74.4116C79.2623 74.7753 78.2148 75.1241 77.1617 75.4582C77.0304 75.5103 76.8839 75.5087 76.7537 75.4537C76.6235 75.3988 76.5201 75.2949 76.4659 75.1645C76.3183 74.8611 76.4826 74.6342 76.6802 74.4241C76.7135 74.3863 76.7537 74.3551 76.7986 74.3322C77.8523 73.7835 79.0348 73.5301 80.2208 73.5988C80.4171 73.6113 80.6021 73.7867 80.9236 73.9593Z" fill="black"></path><path d="M74.7994 46.0437C74.7994 46.0437 81.7581 44.9929 89.3153 45.867C94.0375 46.4139 99.4625 48.3804 102.119 49.7638C102.119 49.7638 104.084 46.155 107.408 48.2329C110.731 50.3108 109.356 54.6349 109.356 54.6349L111.444 57.0009L113.532 62.707C113.532 62.707 117.985 50.4597 105.042 41.6917C96.5816 35.9605 86.0183 40.2262 82.6949 41.0571C79.3714 41.888 74.7994 46.0437 74.7994 46.0437Z" fill="#2C76F4"></path><path d="M28.7624 54.3441C28.484 53.4687 28.1736 52.7436 28.0052 51.9879C27.3998 49.2781 28.0052 46.8217 29.6753 44.62C30.8388 43.0891 32.3308 41.9242 33.9758 40.95L34.6522 40.5519C34.5752 40.4136 34.4882 40.281 34.392 40.1553C32.5368 38.0983 31.6085 35.6084 31.0226 32.9558C30.1346 28.9197 30.8166 25.0632 32.5243 21.3598C32.8165 20.7266 33.2563 20.149 33.6892 19.5937C34.2166 18.9159 34.8025 18.2813 35.3745 17.6452C36.8984 15.9473 37.8727 15.367 40.0187 14.8618C40.1482 13.8667 40.2526 12.8646 40.4126 11.8709C40.6754 10.2182 41.221 8.62307 42.0256 7.15568C42.4097 6.45981 42.9498 5.8377 43.4508 5.20724C43.7166 4.87322 44.0729 4.61158 44.3485 4.28313C45.299 3.15411 46.5158 2.27974 47.889 1.73902C49.6983 1.01253 51.6106 0.511509 53.559 0.522643C56.4817 0.539344 58.8114 1.85036 60.6694 4.14117C62.4675 6.35404 63.3903 8.89675 63.9359 11.6357C64.1976 12.9467 64.526 14.2452 64.8363 15.5994C64.9455 15.5546 65.0511 15.5016 65.1522 15.4407C66.338 14.525 67.6309 14.3412 69.0881 14.6892C70.7359 15.083 72.0038 16.0322 73.1812 17.1665L73.5124 17.4768C73.5506 17.4962 73.5908 17.5116 73.6322 17.5228C73.891 17.0746 74.147 16.614 74.4198 16.1616C75.6876 14.0545 77.3744 12.3914 79.5692 11.2627C80.4043 10.8368 81.2589 10.5919 82.1969 10.706C83.1934 10.8313 84.8189 11.6607 85.5704 12.4554C85.7778 12.2508 85.988 12.0463 86.1926 11.8375C88.3178 9.67752 90.9426 8.68381 93.9182 8.42495C95.9097 8.25098 97.7273 8.70329 99.4419 9.67751C100.55 10.305 101.431 11.2685 101.956 12.429C102.482 13.5894 102.625 14.8868 102.365 16.1338C101.859 18.6807 100.532 20.7739 98.8031 22.6332C97.5297 24.0041 96.1713 25.2956 94.8826 26.6526C92.6928 28.9344 90.663 31.3646 88.8077 33.9258C88.0172 35.0295 87.3979 36.2598 86.7201 37.4456C86.5503 37.7462 86.4723 38.0983 86.3122 38.5339C86.919 38.4629 87.4146 38.4086 87.9087 38.346C90.18 38.0579 92.4513 38.1623 94.7184 38.3864C96.7796 38.5923 98.8407 38.822 100.842 39.4037C103.518 40.1817 105.992 41.3522 108.124 43.1781C109.475 44.3649 110.657 45.7308 111.638 47.2378C112.732 48.8815 113.725 50.5878 114.324 52.4875C114.476 52.9676 114.623 53.4534 114.726 53.946C114.759 54.1182 114.827 54.2818 114.925 54.4269C115.023 54.5719 115.15 54.6953 115.298 54.7894C116.374 55.5438 117.436 56.3204 118.499 57.0997C118.83 57.3325 119.137 57.5978 119.415 57.8916C119.875 58.4038 119.832 58.7406 119.26 59.1442C118.688 59.5478 118.091 59.9431 117.489 60.3133C116.584 60.8699 115.672 61.4113 114.746 61.9277C114.481 62.0671 114.281 62.3043 114.189 62.5887C113.771 63.7021 113.368 64.8155 112.888 65.9053C112.033 67.8549 110.893 69.6664 109.504 71.2802C108.018 73.0018 106.488 74.6872 104.963 76.3753C104.302 77.1074 103.589 77.7921 102.93 78.5256C100.202 81.5771 96.7205 83.8591 92.834 85.1433C90.4179 85.9575 88.0241 86.8621 85.4995 87.3061C84.0326 87.5649 82.5602 87.8113 81.0793 87.9685C79.2422 88.1634 77.4608 87.7347 75.6933 87.288C74.6161 87.0096 73.5569 86.6714 72.4923 86.3625C72.3531 86.3221 72.2042 86.2998 71.9536 86.2456C71.9536 86.4752 71.9064 86.6631 71.9676 86.8134C72.0562 86.9668 72.1773 87.0989 72.3225 87.2003C73.2466 87.995 74.1122 88.837 74.5937 89.9921C76.6535 89.6734 78.6466 89.5384 79.9702 91.4952C80.7092 92.5891 81.3521 93.7707 81.0236 95.1722L80.8511 95.2682C80.6118 94.9899 80.3348 94.7422 80.1441 94.4332C79.8352 93.9433 79.5763 93.42 79.3091 92.9023C78.474 91.2962 77.8031 90.8703 75.8394 90.8049C76.037 90.9858 76.1651 91.1111 76.3028 91.2224C77.4023 92.1479 78.1817 93.2697 78.4127 94.7143C78.5519 95.5494 78.2735 96.0768 77.522 96.4776C77.8365 95.2251 77.266 94.2509 76.6146 93.3128C76.1721 92.6796 75.7016 92.0603 74.9445 91.6066C74.6467 93.3114 73.7101 94.5501 72.399 95.5257C72.1109 95.74 71.7964 95.9933 71.2633 95.8319C71.5333 95.381 71.7685 94.9732 72.019 94.5793C72.367 94.0226 72.7484 93.4854 73.0768 92.9176C73.6948 91.8459 73.6085 90.7785 72.9376 89.7681C72.6389 89.36 72.3135 88.9723 71.9634 88.6074C71.763 88.3791 71.5292 88.1815 71.326 87.956C70.6301 87.1864 70.6009 86.8343 71.1688 85.906C70.9099 85.7946 70.6621 85.675 70.4046 85.5789C67.7158 84.5602 65.3874 82.9861 63.3068 81.0084C62.3326 80.0829 61.3054 79.2187 60.3841 78.2542C59.3528 77.1798 58.4078 76.0274 57.428 74.8987C57.2318 74.6746 57.0481 74.4394 56.8532 74.2028C55.7844 75.2773 54.7545 76.3099 53.7274 77.3454C53.6021 77.4706 53.4811 77.6001 53.3683 77.7365C52.9035 78.3071 52.8646 78.4922 53.342 79.0586C53.8166 79.6158 54.3325 80.1364 54.8854 80.616C55.5812 81.2228 56.2367 81.8393 56.5234 82.7467C56.9298 82.7467 57.3056 82.7189 57.6744 82.7467C58.7433 82.8456 59.6618 83.3118 60.4718 83.991C61.495 84.868 62.2877 85.9823 62.7807 87.2365C63.0019 87.7751 63.1496 88.3499 62.7947 88.9275C62.2519 88.8398 61.9985 88.4139 61.7313 88.0298C61.272 87.3645 60.8643 86.6617 60.387 86.009C60.0582 85.5608 59.6852 85.1467 59.2736 84.7731C58.6875 84.2358 57.9541 83.8859 57.1677 83.7683C57.8107 84.4057 58.2701 85.0055 58.4914 85.7515C58.7127 86.4975 58.817 87.2824 58.6402 88.0729C58.4732 88.8119 58.4175 89.6038 57.7356 90.1703C57.3737 89.8029 57.3974 89.4187 57.4155 89.0485C57.4406 88.4918 57.5144 87.9351 57.5228 87.3784C57.5416 86.5611 57.283 85.7615 56.7892 85.1099C56.7127 85.0097 56.678 84.8789 56.543 84.7968C56.0806 85.836 55.4713 86.8034 54.7337 87.6693C54.0378 88.4891 53.314 89.2837 52.1923 89.672C52.2911 89.4271 52.3511 89.1571 52.4944 88.9428C53.0511 88.1258 53.6356 87.3381 54.1826 86.5198C54.6001 85.8921 55.0593 85.2672 55.3585 84.5852C55.8887 83.3702 55.6633 82.6117 54.632 81.7781C53.9028 81.188 53.1847 80.5965 52.6294 79.8296C51.7651 78.6327 51.7457 78.09 52.738 77.0295C53.8514 75.8326 55.0385 74.6941 56.2354 73.4875C55.3071 72.2154 54.2717 70.9559 52.9815 69.9204C51.8389 69.0047 50.7198 68.0569 49.5647 67.1565C48.7797 66.5427 47.8542 66.1725 46.9023 65.922C43.2256 64.9762 39.6982 63.5241 36.4212 61.6076C34.9804 60.7634 33.6204 59.7883 32.3586 58.6947C32.1412 58.4898 31.8778 58.3404 31.5904 58.259C29.4931 57.8053 27.3846 57.399 25.2872 56.948C21.5587 56.1478 17.8427 55.2932 14.1087 54.5236C10.9188 53.8653 7.71365 53.271 4.50569 52.6935C3.46327 52.5028 2.40006 52.4304 1.3479 52.2954C0.954037 52.2453 0.484928 52.2746 0.313743 51.8139C0.142559 51.3532 0.532307 51.0707 0.827356 50.8146C2.46961 49.3923 4.13125 47.988 5.77212 46.5628C5.92557 46.4119 6.11849 46.3071 6.32868 46.2606C6.53887 46.2141 6.75784 46.2277 6.96067 46.2998C8.04066 46.6519 9.13185 46.9762 10.1937 47.377C15.6522 49.4382 21.1022 51.523 26.5592 53.5925C27.2509 53.8583 27.9496 54.0685 28.7624 54.3441ZM51.6496 66.9491C51.8409 67.1297 52.0417 67.3002 52.2509 67.4598C54.255 68.7862 55.9055 70.473 57.3905 72.356C59.0954 74.5202 60.8309 76.6704 62.9394 78.4699C63.2203 78.7251 63.4874 78.995 63.7397 79.2785C65.4592 81.0699 67.4723 82.554 69.6921 83.6667C71.9592 84.8176 74.3474 85.6304 76.7899 86.2984C78.1817 86.6798 79.611 86.9512 81.0626 86.7772C82.6659 86.5838 84.2636 86.3458 85.8599 86.073C88.0352 85.7014 90.0895 84.8942 92.1771 84.2122C95.9557 82.9764 99.204 80.9152 101.846 77.916C102.764 76.8722 103.748 75.8882 104.676 74.8542C105.858 73.5362 107.017 72.1987 108.175 70.8613C110.103 68.6345 111.449 66.0667 112.566 63.3653C112.671 63.1154 112.705 62.8415 112.665 62.5734C112.463 61.5352 112.215 60.5053 111.986 59.4726C111.596 57.7246 110.594 56.3607 109.319 55.1582C108.962 54.8214 108.696 54.4248 108.853 53.8931C108.991 53.7958 109.161 53.7538 109.329 53.7754C109.497 53.797 109.651 53.8807 109.76 54.0101C111.404 55.6607 112.785 57.4769 113.422 59.7677C113.462 59.9069 113.535 60.046 113.632 60.2924C114.373 58.2813 114.261 56.3371 113.911 54.422C113.706 53.3086 113.24 52.2509 112.837 51.1876C111.987 48.9483 110.52 47.107 108.941 45.3534C107.056 43.2658 104.732 41.8184 102.078 40.9152C100.13 40.2771 98.1264 39.8242 96.0934 39.5624C93.6996 39.2256 91.31 39.3522 88.919 39.7016C85.6624 40.1817 82.5671 41.117 79.6834 42.7286C78.4614 43.4106 77.3175 44.1871 76.3766 45.2337C76.2138 45.4161 76.0663 45.6123 75.8199 45.9171C76.2152 45.8336 76.4545 45.7779 76.6981 45.732C78.1399 45.4884 79.5776 45.1948 81.0292 45.0194C83.5524 44.7174 86.0743 44.8886 88.5947 45.1447C93.278 45.634 97.8507 46.8815 102.134 48.8384C102.449 48.9942 102.733 49.2086 102.969 49.4702C103.272 49.7931 103.247 50.0352 102.999 50.3386C102.768 50.617 102.507 50.649 102.196 50.4681C101.957 50.3289 101.705 50.2078 101.453 50.0895C94.0768 46.5754 86.3569 45.1906 78.2305 46.3931C77.1731 46.5343 76.13 46.7672 75.1129 47.0889C75.1931 47.2424 75.2814 47.3916 75.3774 47.5357C76.8234 49.4201 78.2025 51.3644 79.7432 53.1681C81.3827 55.0887 83.0918 56.9619 85.203 58.4066C85.9114 58.8923 85.9421 59.2541 85.3993 59.9611C84.7037 60.8319 83.8835 61.5954 82.9651 62.2269C81.1845 63.479 79.2426 64.4841 77.1922 65.215C72.2182 67.0451 67.0534 67.7006 61.787 67.7299C61.2303 67.7299 60.6736 67.7145 60.1169 67.6992C59.5867 67.6853 59.0551 67.6686 58.5262 67.6394C57.9695 67.6088 57.4128 67.567 56.8561 67.5211C56.2994 67.4752 55.7426 67.4251 55.1957 67.368C54.6682 67.3137 54.1157 67.1189 53.6217 67.2191C53.0302 67.3388 52.5945 66.9908 52.074 66.9602L51.6496 66.9491ZM42.7201 28.7833C42.1495 28.7235 42.1524 28.3658 42.0744 28.1014C40.936 24.2825 40.0856 20.4148 40.0814 16.4024C40.0692 16.2202 40.0459 16.039 40.0118 15.8596C38.8553 16.1909 37.8393 16.6641 37.0724 17.4866C36.0217 18.6111 35.0475 19.8108 34.0775 21.0063C33.8046 21.3719 33.5869 21.7756 33.4316 22.2046C31.916 25.9623 31.422 29.7965 32.5326 33.7797C33.44 37.0266 35.1254 39.7906 37.465 42.1747C37.991 42.7133 38.6187 43.1489 39.1977 43.6388C39.5985 43.9742 40.0201 44.2957 40.1245 44.8914C39.675 45.0681 39.3271 44.9095 39.0265 44.6896C38.3751 44.2136 37.7266 43.7279 37.117 43.199C36.4726 42.6423 35.8741 42.0258 35.2228 41.4037C33.4553 42.4377 31.8368 43.6652 30.6093 45.3506C28.807 47.8238 28.555 50.4458 29.898 53.2126C30.6858 54.834 31.8298 56.1714 33.1617 57.3586C35.0011 58.9851 37.0631 60.3408 39.2854 61.3849C43.1391 63.2178 47.1904 64.4593 51.3572 65.3388C51.5878 65.372 51.8202 65.3911 52.0531 65.3959C51.5103 63.4475 52.2759 61.8567 53.1568 60.2548C52.6405 59.6605 52.1004 59.0607 51.5827 58.4455C50.6085 57.289 50.0101 55.9668 49.9405 54.4485C49.8987 53.541 49.9224 52.6295 49.9697 51.722C50.0783 49.6901 50.8743 48.0061 52.5625 46.8036C52.9953 46.4947 53.431 46.1926 53.8652 45.8878C54.0239 45.7751 54.1854 45.6638 54.3273 45.565C54.3252 45.5235 54.3182 45.4823 54.3064 45.4425C54.2173 45.2602 54.1184 45.0834 54.0363 44.8997C53.0315 42.6534 52.3872 40.2958 52.5361 37.8394C52.7463 34.3601 54.1631 31.3984 56.8046 29.0714C59.1371 27.0172 61.8329 25.6144 64.782 24.6791L65.4459 24.4676C65.4111 24.2324 65.3917 24.0347 65.3513 23.8413C64.4773 19.7106 63.6027 15.5817 62.7278 11.4548C62.2184 9.0234 61.3876 6.76321 59.7495 4.82034C58.7753 3.6652 57.655 2.76195 56.2702 2.21639C55.0385 1.73067 53.7455 1.48711 52.4095 1.75294C51.6426 1.90464 50.8786 2.09809 50.1117 2.23309C48.2594 2.55111 46.5589 3.45793 45.2628 4.81895C44.9274 5.1641 44.5544 5.47306 44.2399 5.83353C43.8265 6.27594 43.4538 6.75479 43.1265 7.26424C42.2448 8.74593 41.6323 10.372 41.3173 12.0671C40.6951 15.4477 40.9178 18.8268 41.4286 22.1865C41.7069 24.057 42.2135 25.8941 42.6046 27.7535C42.6728 28.061 42.6784 28.3811 42.7201 28.7833ZM84.8161 13.1958C84.1968 12.8994 83.5524 12.6099 82.9261 12.2856C82.1231 11.8681 81.3229 11.8932 80.5115 12.2314C78.5074 13.0664 76.7969 14.2884 75.5791 16.1115C74.3613 17.9347 73.2591 19.8484 72.5632 21.9569C72.3753 22.5247 72.1457 23.0772 71.93 23.6269C71.5668 23.6436 71.4693 23.4502 71.5013 23.1983C71.5355 22.8977 71.5994 22.6012 71.692 22.3131C72.1095 21.0717 72.5424 19.8372 72.9724 18.593C71.5236 16.671 70.5341 16.0072 68.768 15.4616C67.3234 15.0148 66.1612 15.4616 65.0715 16.2966C65.9204 20.6027 66.7597 24.8559 67.5962 29.1007C67.6644 29.1007 67.6963 29.1007 67.713 29.0881C67.8146 29.0144 67.9134 28.9364 68.0108 28.8585C69.3385 27.8077 70.8069 27.2747 72.5243 27.5725C73.6642 27.7702 74.8136 27.9107 75.8171 28.363C76.6382 27.528 77.3857 26.7013 78.1957 25.9456C79.0537 25.1396 80.1768 24.6753 81.3535 24.6401C85.4062 24.4536 88.791 25.8704 91.562 28.8933C91.7012 28.7458 91.8778 28.5676 92.0462 28.3839C93.1596 27.1731 94.2577 25.9553 95.3739 24.7487C96.369 23.6729 97.4197 22.6444 98.3731 21.5324C99.8205 19.8428 100.948 17.9723 101.318 15.7205C101.505 14.6937 101.342 13.6341 100.857 12.7101C99.7969 10.6559 97.9486 9.72066 95.8289 9.50912C92.2842 9.15979 89.1417 10.205 86.6171 12.8493C85.8694 13.6051 85.219 14.4513 84.6812 15.3683C84.0057 16.556 83.3289 17.7413 82.6506 18.9242C82.5114 19.1664 82.382 19.4127 82.2331 19.6466C82.1092 19.8372 81.9547 20.0641 81.6916 19.9416C81.3813 19.8024 81.4899 19.5241 81.5707 19.2819C81.6313 19.1157 81.7023 18.9534 81.7835 18.7962C82.0772 18.2089 82.3597 17.6146 82.6756 17.0384C83.3743 15.7566 84.0966 14.4846 84.8203 13.2L84.8161 13.1958ZM67.2217 32.793C67.0823 32.8868 66.9502 32.991 66.8265 33.1047C65.7368 34.3656 64.6289 35.6098 63.5726 36.9014C63.0883 37.4915 62.8767 38.2333 62.6805 38.9751C62.0069 41.4941 62.7403 46.24 64.3923 48.2844C64.685 48.6659 64.9405 49.0746 65.155 49.505C65.3568 49.8905 65.2065 50.2009 64.8029 50.34C64.6562 50.3792 64.5062 50.4044 64.3548 50.4152C63.8351 50.4661 63.3354 50.6425 62.899 50.9293C62.4626 51.2161 62.1025 51.6047 61.8497 52.0616C60.3842 54.6196 60.3605 57.2208 61.8497 59.7649C62.2769 60.4928 62.9324 61.0898 63.51 61.7217C63.9971 62.2561 64.0012 62.483 63.4877 62.9826C63.2566 63.2067 62.9922 63.4488 62.8837 63.7355C62.5691 64.5706 62.5525 65.4502 62.533 66.3645C62.6996 66.3888 62.8672 66.4041 63.0354 66.4105C67.4486 66.2922 71.8033 65.7995 76.0301 64.4328C78.9165 63.4989 81.6193 62.206 83.8767 60.1184C84.2065 59.8136 84.5071 59.4796 84.8105 59.1706C84.7716 59.0899 84.7605 59.0315 84.7271 59.005C84.6186 58.8992 84.5012 58.8028 84.3763 58.7169C82.9303 57.8039 81.7584 56.5848 80.549 55.3934C77.2478 52.1409 74.5283 48.4431 72.0886 44.5253C70.3565 41.7849 69.0338 38.8063 68.1625 35.6836C67.9064 34.7414 67.5627 33.8145 67.2217 32.793ZM62.533 62.4148C62.5177 62.3665 62.4976 62.3199 62.4731 62.2756C62.3673 62.1657 62.2588 62.0599 62.1544 61.9513C60.0459 59.7733 59.2555 57.1735 59.8595 54.2174C60.309 52.0157 61.3194 50.1688 63.6547 49.4159C63.6937 49.4034 63.7173 49.3477 63.7479 49.3115C63.7443 49.2638 63.7336 49.2169 63.716 49.1724C63.6426 49.0397 63.5606 48.9119 63.471 48.7896C62.5524 47.5705 62.0348 46.1871 61.7843 44.6937C61.6674 43.9979 61.524 43.302 61.4488 42.5978C61.1608 39.8477 61.6493 37.3189 63.5365 35.1673C64.6011 33.9523 65.5935 32.6719 66.9337 31.7352C66.4216 29.6782 66.2225 27.6185 65.6812 25.5253C64.6819 25.9233 63.7564 26.2532 62.8629 26.6554C60.7516 27.6045 58.7767 28.7847 57.165 30.4729C54.9285 32.8152 53.7887 35.6405 53.9557 38.8735C54.0685 41.046 54.5528 43.1767 55.5743 45.1461C55.9807 45.931 55.8679 46.0938 55.0801 46.5754C54.2411 47.0861 53.4347 47.6486 52.6655 48.2594C51.9749 48.8284 51.4948 49.6124 51.3016 50.4862C50.9616 51.8913 50.8987 53.3492 51.1165 54.7783C51.3058 56.1032 51.9961 57.186 52.8618 58.1686C53.3294 58.7002 53.8123 59.2193 54.2743 59.7538C54.7851 60.3439 54.749 60.5652 54.1241 61.0189C53.9511 61.1233 53.8044 61.2662 53.6955 61.4364C53.0455 62.7892 52.6753 64.1753 53.3016 65.6854C56.0097 66.1387 58.7491 66.3797 61.4948 66.4063C61.7843 64.9937 61.4906 63.5282 62.533 62.4134V62.4148ZM85.2378 38.7941C86.013 37.3175 86.713 35.9494 87.4493 34.5994C87.6316 34.264 87.6581 33.9773 87.4312 33.6934C87.2343 33.4323 87.0062 33.1963 86.752 32.9906C85.9724 32.3827 85.079 31.937 84.1245 31.6796C82.3848 31.2342 80.7954 31.5279 79.5317 32.8695C78.9753 33.4883 78.4638 34.1459 78.0008 34.8374C77.5833 35.4345 77.38 35.5013 76.9013 34.9766C76.2087 34.1868 75.2391 33.6935 74.1929 33.5988C72.662 33.4471 71.2564 33.9871 69.9175 34.6454C69.3789 34.9098 69.2885 35.3078 69.4429 35.781C70.5355 39.1379 71.9481 42.3417 73.8561 45.3228C73.9605 45.4856 74.0858 45.636 74.2152 45.8099C74.2878 45.7628 74.3538 45.7061 74.4115 45.6415C75.7517 43.4147 77.7517 41.9576 80.0355 40.8289C81.7585 39.9688 83.5163 39.2158 85.2378 38.7941ZM88.2328 33.3413C89.0275 32.2502 89.7943 31.1841 90.5751 30.1306C90.6504 30.0432 90.6905 29.9309 90.6874 29.8156C90.6843 29.7003 90.6384 29.5903 90.5585 29.5071C90.2487 29.11 89.899 28.7457 89.5147 28.4201C87.6568 26.9936 85.5914 26.0263 83.2365 25.7883C82.6075 25.7292 81.975 25.7125 81.3437 25.7382C80.3695 25.7702 79.5344 26.1557 78.7857 26.7653C77.8458 27.5353 77.0259 28.4411 76.353 29.4528C75.9995 29.9802 75.7169 29.9789 75.433 29.4166C75.259 29.07 74.9765 28.9698 74.6606 28.8822C73.5633 28.5775 72.43 28.4216 71.2912 28.4187C69.9482 28.4187 68.9684 29.1702 68.0735 30.0498C67.9954 30.1426 67.9378 30.2508 67.9044 30.3673C67.8711 30.4839 67.8628 30.6062 67.8801 30.7262C68.1258 31.9261 68.4821 33.1007 68.9447 34.2348C69.564 33.9732 70.1263 33.7004 70.7122 33.4958C71.2592 33.3051 71.8326 33.191 72.3921 33.0351C74.0177 32.5828 75.4859 32.9836 76.8693 33.8549C77.0308 33.9551 77.1936 34.0525 77.3801 34.1652C78.6062 32.2446 80.0396 30.6706 82.4682 30.6051C84.7952 30.5467 86.6365 31.5835 88.2314 33.3413H88.2328ZM1.88231 51.1556L1.96861 51.3156L2.47787 51.3838C3.90441 51.5731 5.33936 51.7109 6.75476 51.9614C9.36103 52.4253 11.9617 52.9264 14.5568 53.4645C17.0258 53.9822 19.4808 54.5668 21.933 55.1346C24.7833 55.7971 27.6308 56.4762 30.4797 57.1443C30.5664 57.1422 30.6522 57.1272 30.7344 57.0997C30.3169 56.543 29.9467 56.0114 29.5459 55.4978C29.4402 55.3985 29.3093 55.3302 29.1674 55.3002C27.9914 54.923 26.7916 54.6043 25.6379 54.1715C20.3493 52.1757 15.0732 50.1355 9.78737 48.1369C8.86882 47.7876 7.91967 47.5176 6.98581 47.2058C6.82411 47.1369 6.64526 47.1188 6.47302 47.1538C6.30077 47.1889 6.14317 47.2754 6.02124 47.4021C5.45063 47.9365 4.82441 48.4125 4.24405 48.933C3.44798 49.672 2.66854 50.4221 1.88081 51.1639L1.88231 51.1556ZM114.736 60.8588L118.858 58.4038C117.645 57.385 116.409 56.5639 115.21 55.6815C115.048 57.4518 114.894 59.1205 114.734 60.8644L114.736 60.8588Z" fill="black" stroke="black" stroke-width="0.183307"></path></svg>